<?xml version="1.0" encoding="utf-8"?>
<!-- Generator: Adobe Illustrator 24.0.1, SVG Export Plug-In . SVG Version: 6.00 Build 0)  -->
<svg version="1.1" id="Layer_1" xmlns="http://www.w3.org/2000/svg" xmlns:xlink="http://www.w3.org/1999/xlink" x="0px" y="0px"
	 viewBox="0 0 128 128" style="enable-background:new 0 0 128 128;" xml:space="preserve">
<style type="text/css">
	.st0{fill:url(#SVGID_1_);}
	.st1{fill:#F1F2F2;}
</style>
<g>
	<linearGradient id="SVGID_1_" gradientUnits="userSpaceOnUse" x1="63.9597" y1="123.7306" x2="63.9597" y2="3.913">
		<stop  offset="0" style="stop-color:#000000"/>
		<stop  offset="1" style="stop-color:#414042"/>
	</linearGradient>
	<path class="st0" d="M103.87,123.73H24.05c-11,0-20-9-20-20V23.91c0-11,9-20,20-20h79.82c11,0,20,9,20,20v79.82
		C123.87,114.73,114.87,123.73,103.87,123.73z"/>
	<path class="st1" d="M104.01,59.82H73.17c-1.6-3.6-5.01-6.01-9.21-6.01s-7.61,2.4-9.21,6.01H23.91c-2.2,0-4,1.8-4,4s1.8,4,4,4
		h30.84c1.6,3.6,5.01,6.01,9.21,6.01s7.61-2.4,9.21-6.01h30.84c2.2,0,4-1.8,4-4S106.21,59.82,104.01,59.82z M63.96,69.83
		c-3.4,0-6.01-2.6-6.01-6.01c0-3.4,2.6-6.01,6.01-6.01s6.01,2.6,6.01,6.01C69.97,67.23,67.36,69.83,63.96,69.83z M104.01,87.85H93.2
		c-1.6-3.6-5.01-6.01-9.21-6.01c-4.21,0-7.61,2.4-9.21,6.01H23.91c-2.2,0-4,1.8-4,4c0,2.2,1.8,4,4,4h50.86
		c1.6,3.6,5.01,6.01,9.21,6.01c4.21,0,7.61-2.4,9.21-6.01l10.81,0c2.2,0,4-1.8,4-4C108.01,89.65,106.21,87.85,104.01,87.85
		L104.01,87.85z M83.98,97.86c-3.4,0-6.01-2.6-6.01-6.01c0-3.4,2.6-6.01,6.01-6.01c3.4,0,6.01,2.6,6.01,6.01
		C89.99,95.26,87.39,97.86,83.98,97.86z M104.01,31.78H53.15c-1.6-3.6-5.01-6.01-9.21-6.01s-7.61,2.4-9.21,6.01H23.91
		c-2.2,0-4,1.8-4,4c0,2.2,1.8,4,4,4h10.81c1.6,3.6,5.01,6.01,9.21,6.01s7.61-2.4,9.21-6.01l50.86,0c2.2,0,4-1.8,4-4
		C108.01,33.59,106.21,31.78,104.01,31.78L104.01,31.78z M43.93,41.79c-3.4,0-6.01-2.6-6.01-6.01c0-3.4,2.6-6.01,6.01-6.01
		c3.4,0,6.01,2.6,6.01,6.01C49.94,39.19,47.34,41.79,43.93,41.79z M106.01,1.74h-84.1c-11.01,0-20.02,9.01-20.02,20.02v84.1
		c0,11.01,9.01,20.02,20.02,20.02h84.1c11.01,0,20.02-9.01,20.02-20.02l0-84.1C126.04,10.76,117.03,1.74,106.01,1.74L106.01,1.74z
		 M118.03,105.87c0,6.61-5.41,12.02-12.02,12.02l-84.1,0c-6.61,0-12.02-5.41-12.02-12.02l0-84.1c0-6.61,5.41-12.02,12.02-12.02h84.1
		c6.61,0,12.02,5.41,12.02,12.02L118.03,105.87z"/>
</g>
</svg>
