<svg id="Layer_1" data-name="Layer 1" xmlns="http://www.w3.org/2000/svg" viewBox="0 0 124.08 123.51"><defs><style>.cls-1{fill:#fff;}.cls-1,.cls-3{fill-rule:evenodd;}.cls-2{fill:#999;}.cls-3{fill:red;}</style></defs><title>youtube-app</title><path class="cls-1" d="M28.35.6H95.73a27.83,27.83,0,0,1,27.75,27.75V95.17a27.83,27.83,0,0,1-27.75,27.74H28.35A27.83,27.83,0,0,1,.6,95.17V28.35A27.83,27.83,0,0,1,28.35.6Z"/><path class="cls-2" d="M28.35,0H95.73a28.44,28.44,0,0,1,28.35,28.35V95.17a28.42,28.42,0,0,1-28.35,28.34H28.35A28.42,28.42,0,0,1,0,95.17V28.35A28.44,28.44,0,0,1,28.35,0ZM95.73,1.2H28.35A27.21,27.21,0,0,0,1.2,28.35V95.17a27.21,27.21,0,0,0,27.15,27.14H95.73a27.21,27.21,0,0,0,27.15-27.14V28.35A27.21,27.21,0,0,0,95.73,1.2Z"/><path class="cls-3" d="M104.91,44.26s-.85-6-3.48-8.69c-3.33-3.48-7.07-3.5-8.77-3.71C80.42,31,62,31,62,31h0s-18.37,0-30.62.89c-1.71.21-5.44.23-8.77,3.71-2.63,2.65-3.47,8.69-3.47,8.69a133.12,133.12,0,0,0-.87,14.17v6.64a133.37,133.37,0,0,0,.87,14.17s.86,6,3.47,8.69c3.33,3.48,7.71,3.37,9.67,3.74,7,.67,29.76.87,29.76.87s18.4,0,30.64-.91c1.71-.2,5.44-.22,8.77-3.7,2.63-2.65,3.49-8.69,3.49-8.69a133.18,133.18,0,0,0,.87-14.18V58.43a136.86,136.86,0,0,0-.89-14.18Z"/><polygon class="cls-1" points="52.97 73.11 52.97 48.51 76.61 60.86 52.97 73.11 52.97 73.11"/></svg>